# AST/ASF file generated using VICON BodyLanguage
# -----------------------------------------------
:version 1.10
:name VICON
:units
  mass 1.0
  length 0.45
  angle deg
:documentation
   .ast/.asf automatically generated from VICON data using
   VICON BodyBuilder and BodyLanguage model FoxedUp or BRILLIANT.MOD
:root
   order TX TY TZ RX RY RZ
   axis XYZ
   position 0 0 0  
   orientation 0 0 0 
:bonedata
  begin
     id 1 
     name lhipjoint
     direction 0.677091 -0.635792 0.370561 
     length 2.74323 
     axis 0 0 0  XYZ
  end
  begin
     id 2 
     name lfemur
     direction 0.34202 -0.939693 0  
     length 7.44995  
     axis 0 0 20  XYZ
    dof rx ry rz
    limits (-160.0 20.0)
           (-70.0 70.0)
           (-60.0 70.0)
  end
  begin
     id 3 
     name ltibia
     direction 0.34202 -0.939693 0   
     length 7.34467   
     axis 0 0 20   XYZ
    dof rx
    limits (-10.0 170.0)
  end
  begin
     id 4 
     name lfoot
     direction 0.101953 -0.280114 0.954537   
     length 1.72105   
     axis -90 7.62852e-016 20   XYZ
    dof rx rz
    limits (-45.0 90.0)
           (-70.0 20.0)
  end
  begin
     id 5 
     name ltoes
     direction 1.53537e-011 -4.21915e-011 1   
     length 0.865872   
     axis -90 7.62852e-016 20   XYZ
    dof rx
    limits (-90.0 20.0)
  end
  begin
     id 6 
     name rhipjoint
     direction -0.695735 -0.620586 0.361699   
     length 2.81045  
     axis 0 0 0  XYZ 
  end
  begin
     id 7 
     name rfemur
     direction -0.34202 -0.939693 0   
     length 7.29387   
     axis 0 0 -20   XYZ
    dof rx ry rz
    limits (-160.0 20.0)
           (-70.0 70.0)
           (-70.0 60.0)
  end
  begin
     id 8 
     name rtibia
     direction -0.34202 -0.939693 0   
     length 7.44935   
     axis 0 0 -20   XYZ
    dof rx
    limits (-10.0 170.0)
 end
 begin
     id 9 
     name rfoot
     direction -0.104163 -0.286184 0.952496   
     length 1.77731  
     axis -90 -7.62852e-016 -20   XYZ
    dof rx rz
    limits (-45.0 90.0)
           (-20.0 70.0)
  end
  begin
     id 10 
     name rtoes
     direction -1.5355e-011 -4.21888e-011 1   
     length 0.892424   
     axis -90 -7.62852e-016 -20   XYZ
    dof rx
    limits (-90.0 20.0)
  end
  begin
     id 11 
     name lowerback
     direction 0.0100202 0.997226 -0.0737589   
     length 2.16892   
     axis 0 0 0   XYZ
    dof rx ry rz
    limits (-20.0 45.0)
           (-30.0 30.0)
           (-30.0 30.0)
  end
  begin
     id 12 
     name upperback
     direction 0.00432398 0.999988 -0.00215019   
     length 2.17326   
     axis 0 0 0   XYZ
    dof rx ry rz
    limits (-20.0 45.0)
           (-30.0 30.0)
           (-30.0 30.0)
  end
  begin
     id 13 
     name thorax
     direction -0.00195047 0.999485 0.0320434   
     length 2.18139   
     axis 0 0 0   XYZ
    dof rx ry rz
    limits (-20.0 45.0)
           (-30.0 30.0)
           (-30.0 30.0)
  end
  begin
     id 14 
     name lowerneck
     direction 0.00782762 0.986241 0.165128   
     length 1.88415   
     axis 0 0 0   XYZ
    dof rx ry rz
    limits (-20.0 45.0)
           (-30.0 30.0)
           (-30.0 30.0)
  end
  begin
     id 15 
     name upperneck
     direction 0.00988667 0.981098 -0.193258   
     length 1.9242   
     axis 0 0 0   XYZ
    dof rx ry rz
    limits (-20.0 45.0)
           (-30.0 30.0)
           (-30.0 30.0)
  end
  begin
     id 16
     name head
     direction 0.00252199 0.996513 -0.0833958  
     length 1.93887  
     axis 0 0 0   XYZ
    dof rx ry rz
    limits (-20.0 45.0)
           (-30.0 30.0)
           (-30.0 30.0)
  end
  begin
     id 17 
     name lclavicle
     direction 0.929492 0.368193 -0.0218667  
     length 3.5955  
     axis 0 0 0   XYZ
    dof ry rz
    limits (-20.0 10.0)
           (0.0 20.0)
  end
  begin
     id 18 
     name lhumerus
     direction 1 -4.48972e-011 1.41911e-027   
     length 5.2795   
     axis 180 -30 -90   XYZ
    dof rx ry rz
    limits (-60.0 90.0)
           (-90.0 90.0)
           (-90.0 90.0)
  end
  begin
     id 19
     name lradius
     direction 1 -4.48963e-011 7.05772e-027   
     length 3.53504   
     axis 180 -30 -90   XYZ
    dof rx
    limits (-10.0 170.0)
  end
  begin
     id 20
     name lwrist
     direction 1 -4.48957e-011 9.54866e-027   
     length 1.76752   
     axis -7.69462e-015 90 90   XYZ
    dof ry
    limits (-180.0 0.0)
 end
  begin
     id 21 
     name lhand
     direction 1 -4.48979e-011 1.90973e-026   
     length 0.667948   
     axis -1.21857e-014 90 90   XYZ
    dof rx rz
    limits (-90.0 90.0)
           (-45.0 45.0)
  end
  begin
     id 22 
     name lfingers
     direction 1 -4.48987e-011 3.81946e-026   
     length 0.538517   
     axis -2.43714e-014 90 90   XYZ
    dof rx
    limits (0.0 90.0)
  end
  begin
     id 23
     name lthumb
     direction 0.707107 -6.34962e-011 0.707107   
     length 0.773206   
     axis -90 45 2.85299e-015   XYZ
    dof rx rz
    limits (-45.0 45.0)
           (-45.0 45.0)
  end
  begin
     id 24 
     name rclavicle
     direction -0.898763 0.414256 -0.143584   
     length 3.5176  
     axis 0 0 0   XYZ 
    dof ry rz
    limits (-10.0 20.0)
           (-20.0 0.0)
  end
  begin
     id 25 
     name rhumerus
     direction -1 -4.48971e-011 1.129e-027  
     length 5.25035   
     axis 180 30 90   XYZ
    dof rx ry rz
    limits (-90.0 60.0)
           (-90.0 90.0)
           (-90.0 90.0)
  end
  begin
     id 26 
     name rradius
     direction -1 -4.48955e-011 6.34664e-027   
     length 3.58884   
     axis 180 30 90   XYZ
    dof rx
    limits (-10.0 170.0)
  end
  begin
     id 27 
     name rwrist
     direction -1 -4.48966e-011 9.54866e-027   
     length 1.79442   
     axis -7.69462e-015 -90 -90   XYZ
    dof ry
    limits (-180.0 0.0)
  end
  begin
     id 28
     name rhand
     direction -1 -4.48973e-011 1.90973e-026   
     length 0.779235   
     axis -1.21857e-014 -90 -90   XYZ
    dof rx rz
    limits (-90.0 90.0)
           (-45.0 45.0)
  end
  begin
     id 29
     name rfingers
     direction -1 -4.48984e-011 3.81946e-026   
     length 0.62824   
     axis -2.43714e-014 -90 -90   XYZ
    dof rx
    limits (0.0 90.0)
  end
  begin
     id 30
     name rthumb
     direction -0.707107 -6.34968e-011 0.707107   
     length 0.90203   
     axis -90 -45 -2.85299e-015   XYZ
    dof rx rz
    limits (-45.0 45.0)
           (-45.0 45.0)
  end
:hierarchy
  begin
    root lhipjoint rhipjoint lowerback
    lhipjoint lfemur
    lfemur ltibia
    ltibia lfoot
    lfoot ltoes
    rhipjoint rfemur
    rfemur rtibia
    rtibia rfoot
    rfoot rtoes
    lowerback upperback
    upperback thorax
    thorax lowerneck lclavicle rclavicle
    lowerneck upperneck
    upperneck head
    lclavicle lhumerus
    lhumerus lradius
    lradius lwrist
    lwrist lhand lthumb
    lhand lfingers
    rclavicle rhumerus
    rhumerus rradius
    rradius rwrist
    rwrist rhand rthumb
    rhand rfingers
  end

#!OML:ASF I:\Random Stuff\random\construction\7_22_03\Session 2\subj1.ASF
:FULLY-SPECIFIED
:DEGREES
755
root 4.80589 17.768 0.974016 416.262 92.4729 408.389
lowerback -0.856612 1.99298 0.537091
upperback -0.400068 2.6669 1.67327
thorax 0.0149028 1.34127 1.43359
lowerneck -19.4955 -4.6193 2.87499
upperneck 47.1937 -11.8439 13.4208
head 27.2888 -0.912934 5.24595
rclavicle -1.44119e-015 -1.55052e-014
rhumerus 37.9688 38.6861 -44.6957
rradius 103.76
rwrist -9.3585
rhand -15.9112 30.952
rfingers 7.12502
rthumb 10.2858 1.2235
lclavicle -1.44119e-015 -1.55052e-014
lhumerus -17.9573 -17.5309 76.0749
lradius 122.244
lwrist 30.0919
lhand -0.775483 41.4628
lfingers 7.12502
lthumb 24.8474 789.868
rfemur -4.89766 18.0275 23.9037
rtibia 9.09386
rfoot -9.24391 -39.4021
rtoes 5.6891
lfemur -16.0724 -23.1044 -10.2071
ltibia 20.1185
lfoot -13.2299 23.5756
ltoes -26.3183
756
root 4.8074 17.7648 0.979521 413.849 92.6197 406.015
lowerback -0.951636 2.04364 0.493398
upperback -0.416203 2.73305 1.61643
thorax 0.0509409 1.37406 1.40376
lowerneck -19.4751 -4.5981 2.99835
upperneck 47.1198 -11.8168 13.3337
head 27.1058 -0.883887 5.13897
rclavicle -2.11706e-014 5.96354e-015
rhumerus 38.4723 38.6924 -44.194
rradius 103.67
rwrist -8.51468
rhand -16.6647 31.5077
rfingers 7.12502
rthumb 9.55891 1.74455
lclavicle -2.11706e-014 5.96354e-015
lhumerus -17.8147 -17.4074 75.8473
lradius 122.353
lwrist 29.5901
lhand -0.938583 41.3441
lfingers 7.12502
lthumb 24.6911 789.771
rfemur -4.74611 17.9196 24.0072
rtibia 8.95196
rfoot -9.42397 -39.4178
rtoes 6.18191
lfemur -16.1136 -23.2142 -10.1611
ltibia 20.2172
lfoot -13.1062 23.6165
ltoes -26.9215
757
root 4.80899 17.7605 0.9864 411.859 92.7924 404.033
lowerback -1.09721 2.07941 0.447217
upperback -0.422112 2.77894 1.58577
thorax 0.124767 1.39682 1.4044
lowerneck -19.5309 -4.58068 3.03341
upperneck 47.085 -11.7831 13.2831
head 27.0537 -0.866483 5.09691
rclavicle 3.8117e-014 3.57812e-015
rhumerus 39.1015 38.9822 -43.3985
rradius 103.844
rwrist -10.1902
rhand -18.5384 31.7401
rfingers 7.12502
rthumb 7.75065 1.90216
lclavicle 3.8117e-014 3.57812e-015
lhumerus -17.6913 -17.2652 75.6694
lradius 122.443
lwrist 28.8298
lhand -1.48055 41.0062
lfingers 7.12502
lthumb 24.1715 789.503
rfemur -4.66989 17.8078 24.1475
rtibia 8.8967
rfoot -9.50236 -39.4853
rtoes 6.16517
lfemur -16.1589 -23.2052 -10.1092
ltibia 20.2749
lfoot -12.6124 23.6804
ltoes -28.4829
758
root 4.81056 17.7585 0.992103 409.792 92.9527 401.969
lowerback -1.22631 2.15355 0.465772
upperback -0.431846 2.87544 1.51212
thorax 0.189728 1.44462 1.32502
lowerneck -19.6005 -4.60111 2.98877
upperneck 46.9927 -11.813 13.317
head 26.9898 -0.880295 5.10118
rclavicle -2.98177e-016 -1.35174e-014
rhumerus 39.4156 39.0447 -42.9442
rradius 104.095
rwrist -12.3516
rhand -19.8391 32.0511
rfingers 7.12502
rthumb 6.49512 2.17065
lclavicle -2.98177e-016 -1.35174e-014
lhumerus -17.5269 -17.3411 75.5194
lradius 122.489
lwrist 27.776
lhand -2.77951 40.2377
lfingers 7.12502
lthumb 22.9256 788.895
rfemur -4.63074 17.6912 24.2354
rtibia 8.88501
rfoot -9.6031 -39.5297
rtoes 6.35012
lfemur -16.2093 -23.0656 -10.0791
ltibia 20.3162
lfoot -12.3591 23.4184
ltoes -29.0864
759
root 4.81092 17.7591 0.996718 407.402 93.073 399.588
lowerback -1.29762 2.2712 0.519067
upperback -0.458691 3.03019 1.37712
thorax 0.209207 1.52131 1.16177
lowerneck -19.6065 -4.67337 2.86083
upperneck 46.771 -11.9479 13.5106
head 26.8104 -0.936494 5.16961
rclavicle -1.6847e-014 1.19271e-015
rhumerus 39.3527 38.9859 -42.8319
rradius 104.368
rwrist -14.1349
rhand -21.0703 32.388
rfingers 7.12502
rthumb 5.30648 2.47449
lclavicle -1.6847e-014 1.19271e-015
lhumerus -17.3647 -17.7078 75.4253
lradius 122.456
lwrist 26.1803
lhand -4.8122 39.409
lfingers 7.12502
lthumb 20.9738 788.295
rfemur -4.57644 17.5811 24.2625
rtibia 8.8518
rfoot -9.71809 -39.5602
rtoes 6.57393
lfemur -16.2599 -22.8454 -10.1002
ltibia 20.3542
lfoot -12.3007 22.9889
ltoes -29.1017
